#!OML:ASF H:\Not Pregnant\Project 1\Capture day 1\Session 1\non-pregnant.ASF
:FULLY-SPECIFIED
:DEGREES
576
root 10.1957 16.3644 3.16375 18.1248 2.90009 -5.8028
lowerback -1.9838 6.41009 8.95712
upperback -8.37482 8.74226 -2.31228
thorax -6.07424 3.76821 -7.57563
lowerneck 23.9578 -11.1461 -32.0136
upperneck -10.3529 -21.7181 40.0308
head 2.10489 -13.4177 20.1404
rclavicle 3.03147e-015 7.55382e-015
rhumerus -29.2363 -3.43263 -83.6786
rradius 105.253
rwrist 17.7265
rhand -45.9383 0.044169
rfingers 7.12502
rthumb -18.6863 -29.0783
lclavicle 3.03147e-015 7.55382e-015
lhumerus -62.0925 13.6768 62.3926
lradius 47.518
lwrist 61.3867
lhand -27.9312 -0.828207
lfingers 7.12502
lthumb -1.31943 29.1475
rfemur -15.9927 -2.28488 24.5427
rtibia 28.5648
rfoot -15.4919 -6.20276
rtoes -34.9246
lfemur -37.2204 5.08968 -8.46375
ltibia 51.1917
lfoot -20.4574 7.22748
ltoes -28.9654
577
root 10.2396 16.3855 3.20336 18.0725 4.64605 -5.72256
lowerback -2.13585 6.29979 9.06219
upperback -8.37788 8.58649 -2.29054
thorax -6.01176 3.69034 -7.59486
lowerneck 24.6704 -11.271 -31.9798
upperneck -10.7863 -21.9865 40.2279
head 2.0126 -13.6347 20.2689
rclavicle 1.26589e-013 5.1684e-015
rhumerus -29.1232 -3.04185 -84.3002
rradius 103.769
rwrist 16.9208
rhand -46.035 0.18009
rfingers 7.12502
rthumb -18.7794 -28.9334
lclavicle 1.26589e-013 5.1684e-015
lhumerus -62.5163 14.0135 62.1367
lradius 47.0862
lwrist 60.7037
lhand -27.4666 -0.660063
lfingers 7.12502
lthumb -0.870707 29.3179
rfemur -15.3613 -3.07683 24.6546
rtibia 27.9158
rfoot -14.9247 -6.55993
rtoes -35.1488
lfemur -37.6662 4.91827 -8.42262
ltibia 50.0652
lfoot -20.3376 7.57098
ltoes -28.7359
578
root 10.2852 16.4019 3.24304 18.0196 6.36809 -5.64958
lowerback -2.27633 6.19277 9.15905
upperback -8.3752 8.43587 -2.26136
thorax -5.95116 3.61581 -7.60326
lowerneck 25.3802 -11.4091 -31.9262
upperneck -11.2409 -22.2589 40.4394
head 1.91844 -13.856 20.4016
rclavicle -2.8215e-014 -4.92986e-014
rhumerus -28.9793 -2.6199 -84.8325
rradius 102.22
rwrist 16.1335
rhand -46.0645 0.386827
rfingers 7.12502
rthumb -18.8077 -28.7239
lclavicle -2.8215e-014 -4.92986e-014
lhumerus -62.925 14.3993 61.7837
lradius 46.6501
lwrist 60.015
lhand -27.0087 -0.519185
lfingers 7.12502
lthumb -0.428514 29.4601
rfemur -14.7389 -3.89311 24.7804
rtibia 27.2983
rfoot -14.3944 -6.96306
rtoes -35.3901
lfemur -38.1254 4.76625 -8.42653
ltibia 48.9906
lfoot -20.1391 7.7855
ltoes -28.3763
579
root 10.333 16.4138 3.28306 17.9532 8.06628 -5.57928
lowerback -2.39548 6.09094 9.25318
upperback -8.36694 8.294 -2.2277
thorax -5.89626 3.54572 -7.60799
lowerneck 26.1106 -11.5568 -31.8545
upperneck -11.7325 -22.5336 40.6694
head 1.81456 -14.0831 20.5458
rclavicle 1.26725e-013 2.18663e-014
rhumerus -28.832 -2.16217 -85.2786
rradius 100.639
rwrist 15.4132
rhand -45.9855 0.622287
rfingers 7.12502
rthumb -18.7317 -28.4958
lclavicle 1.26725e-013 2.18663e-014
lhumerus -63.3256 14.8291 61.3172
lradius 46.2168
lwrist 59.3348
lhand -26.5304 -0.392598
lfingers 7.12502
lthumb 0.0334838 29.5871
rfemur -14.1153 -4.73079 24.9104
rtibia 26.7243
rfoot -13.9145 -7.40764
rtoes -35.6217
lfemur -38.5782 4.62493 -8.47965
ltibia 47.9642
lfoot -19.8186 7.78969
ltoes -27.9769
580
root 10.3825 16.4206 3.32317 17.8734 9.74815 -5.50689
lowerback -2.49242 5.99247 9.33586
upperback -8.35134 8.1584 -2.18759
thorax -5.84726 3.47944 -7.60206
lowerneck 26.8576 -11.7186 -31.7659
upperneck -12.2643 -22.8145 40.9161
head 1.7025 -14.3176 20.6992
rclavicle -1.83441e-014 1.25234e-014
rhumerus -28.6904 -1.65931 -85.6415
rradius 99.0642
rwrist 14.8084
rhand -45.8386 0.822043
rfingers 7.12502
rthumb -18.5905 -28.3096
lclavicle -1.83441e-014 1.25234e-014
lhumerus -63.7114 15.3164 60.7264
lradius 45.7869
lwrist 58.6473
lhand -26.0178 -0.270726
lfingers 7.12502
lthumb 0.528551 29.7084
rfemur -13.5 -5.57451 25.0415
rtibia 26.2129
rfoot -13.4834 -7.91395
rtoes -35.8641
lfemur -39.0226 4.4872 -8.58422
ltibia 46.98
lfoot -19.3054 7.50271
ltoes -27.6826
581
root 10.4337 16.4222 3.36281 17.7856 11.4113 -5.43157
lowerback -2.56244 5.90019 9.40963
upperback -8.33236 8.0336 -2.14395
thorax -5.80943 3.41857 -7.59051
lowerneck 27.6203 -11.8962 -31.6605
upperneck -12.8394 -23.1023 41.1829
head 1.58256 -14.5604 20.8637
rclavicle -1.63594e-013 -8.15017e-015
rhumerus -28.5816 -1.111 -85.9307
rradius 97.5461
rwrist 14.3645
rhand -45.6738 1.01764
rfingers 7.12502
rthumb -18.4319 -28.1291
lclavicle -1.63594e-013 -8.15017e-015
lhumerus -64.0883 15.8456 60.0134
lradius 45.3841
lwrist 57.9935
lhand -25.4685 -0.17671
lfingers 7.12502
lthumb 1.0591 29.8004
rfemur -12.912 -6.40856 25.17
rtibia 25.7854
rfoot -13.1059 -8.48305
rtoes -36.091
lfemur -39.4626 4.3551 -8.74572
ltibia 46.0326
lfoot -18.5103 6.87157
ltoes -27.7013
582
root 10.4862 16.418 3.40162 17.6895 13.065 -5.35243
lowerback -2.60095 5.81443 9.47438
upperback -8.31404 7.92083 -2.09809
thorax -5.78932 3.36313 -7.57539
lowerneck 28.4103 -12.091 -31.536
upperneck -13.4629 -23.3994 41.4714
head 1.45268 -14.8141 21.0416
rclavicle -5.66039e-014 1.15295e-014
rhumerus -28.531 -0.521725 -86.1491
rradius 96.1298
rwrist 14.1177
rhand -45.5293 1.15874
rfingers 7.12502
rthumb -18.2929 -28.0011
lclavicle -5.66039e-014 1.15295e-014
lhumerus -64.4544 16.407 59.1729
lradius 45.0111
lwrist 57.377
lhand -24.8927 -0.128836
lfingers 7.12502
lthumb 1.61523 29.8448
rfemur -12.3626 -7.22003 25.2974
rtibia 25.4644
rfoot -12.7847 -9.1268
rtoes -36.311
lfemur -39.8988 4.21964 -8.96304
ltibia 45.1245
lfoot -17.3871 5.83811
ltoes -28.1292
583
root 10.5397 16.4076 3.43948 17.585 14.7157 -5.26958
lowerback -2.60961 5.73343 9.53059
upperback -8.28968 7.81738 -2.04667
thorax -5.77947 3.31252 -7.55255
lowerneck 29.2059 -12.3111 -31.397
upperneck -14.1354 -23.7121 41.7838
head 1.32032 -15.0804 21.229
rclavicle -9.93768e-014 1.78906e-014
rhumerus -28.5412 0.116763 -86.3008
rradius 94.8608
rwrist 14.0805
rhand -45.3836 1.21346
rfingers 7.12502
rthumb -18.1527 -27.9595
lclavicle -9.93768e-014 1.78906e-014
lhumerus -64.7962 16.9951 58.2362
lradius 44.6878
lwrist 56.8307
lhand -24.3308 -0.16067
lfingers 7.12502
lthumb 2.15783 29.8082
rfemur -11.8581 -7.99581 25.4246
rtibia 25.2607
rfoot -12.5181 -9.85054
rtoes -36.5099
lfemur -40.3338 4.08077 -9.23987
ltibia 44.2733
lfoot -15.9355 4.3783
ltoes -28.6848
584
root 10.5944 16.391 3.47667 17.4672 16.3583 -5.19569
lowerback -2.58755 5.6639 9.58983
upperback -8.26476 7.73287 -1.98948
thorax -5.78327 3.2705 -7.52822
lowerneck 30.0171 -12.557 -31.2388
upperneck -14.8534 -24.0415 42.1212
head 1.18495 -15.3615 21.4275
rclavicle 3.99153e-014 -3.27995e-014
rhumerus -28.6413 0.785765 -86.394
rradius 93.7839
rwrist 14.2422
rhand -45.24 1.14079
rfingers 7.12502
rthumb -18.0146 -28.0449
lclavicle 3.99153e-014 -3.27995e-014
lhumerus -65.1175 17.5914 57.2088
lradius 44.4212
lwrist 56.3651
lhand -23.8136 -0.294568
lfingers 7.12502
lthumb 2.65742 29.6686
rfemur -11.3961 -8.72248 25.5603
rtibia 25.1759
rfoot -12.3112 -10.644
rtoes -36.6816
lfemur -40.7554 3.95266 -9.56988
ltibia 43.5146
lfoot -14.4155 2.68219
ltoes -29.4114
585
root 10.6499 16.369 3.51338 17.3338 17.9951 -5.1345
lowerback -2.5374 5.60644 9.65441
upperback -8.23442 7.66773 -1.92466
thorax -5.79383 3.23778 -7.50089
lowerneck 30.8314 -12.839 -31.0597
upperneck -15.6257 -24.3952 42.4865
head 1.04998 -15.6607 21.6333
rclavicle -7.77931e-014 -5.06901e-015
rhumerus -28.8291 1.48305 -86.4348
rradius 92.9263
rwrist 14.5685
rhand -45.0922 0.970844
rfingers 7.12502
rthumb -17.8723 -28.2279
lclavicle -7.77931e-014 -5.06901e-015
lhumerus -65.406 18.1924 56.1192
lradius 44.232
lwrist 55.9938
lhand -23.3762 -0.523901
lfingers 7.12502
lthumb 3.07977 29.4336
rfemur -10.9685 -9.38684 25.7088
rtibia 25.1968
rfoot -12.1548 -11.5046
rtoes -36.814
lfemur -41.1541 3.83043 -9.93953
ltibia 42.8982
lfoot -13.0103 0.967426
ltoes -29.9514
586
root 10.7062 16.3421 3.54976 17.1874 19.6187 -5.09621
lowerback -2.47043 5.56725 9.72666
upperback -8.20449 7.62951 -1.85218
thorax -5.80943 3.21797 -7.47073
lowerneck 31.6651 -13.1552 -30.8514
upperneck -16.4541 -24.7685 42.8817
head 0.909874 -15.9782 21.8513
rclavicle 2.17405e-014 -4.67144e-015
rhumerus -29.1085 2.2119 -86.4364
rradius 92.3084
rwrist 14.975
rhand -44.9144 0.669479
rfingers 7.12502
rthumb -17.7013 -28.5448
lclavicle 2.17405e-014 -4.67144e-015
lhumerus -65.6615 18.7812 54.9865
lradius 44.1348
lwrist 55.7215
lhand -23.0512 -0.839717
lfingers 7.12502
lthumb 3.39367 29.113
rfemur -10.5742 -9.97217 25.8776
rtibia 25.3074
rfoot -12.0326 -12.4235
rtoes -36.9197
lfemur -41.5203 3.71451 -10.3273
ltibia 42.4704
lfoot -11.9966 -0.662192
ltoes -30.3111
587
root 10.7632 16.3112 3.58601 17.0168 21.2257 -5.08098
lowerback -2.3781 5.54863 9.81192
upperback -8.17273 7.62206 -1.77557
thorax -5.83072 3.21258 -7.44515
lowerneck 32.5243 -13.512 -30.6054
upperneck -17.3543 -25.1627 43.3114
head 0.75975 -16.3163 22.0844
rclavicle 6.58529e-014 -1.78906e-014
rhumerus -29.4692 2.96515 -86.4109
rradius 91.9269
rwrist 15.3893
rhand -44.7221 0.268935
rfingers 7.12502
rthumb -17.5162 -28.9619
lclavicle 6.58529e-014 -1.78906e-014
lhumerus -65.8823 19.3379 53.8318
lradius 44.1534
lwrist 55.5575
lhand -22.8301 -1.20359
lfingers 7.12502
lthumb 3.60721 28.7456
rfemur -10.1944 -10.4811 26.0625
rtibia 25.4932
rfoot -11.9352 -13.3808
rtoes -36.9987
lfemur -41.8251 3.5811 -10.7075
ltibia 42.2571
lfoot -11.4984 -2.05387
ltoes -30.4855
588
root 10.821 16.2768 3.62234 16.8243 22.8231 -5.08405
lowerback -2.27428 5.54829 9.90187
upperback -8.13835 7.64075 -1.69309
thorax -5.85093 3.2203 -7.41628
lowerneck 33.4184 -13.9079 -30.3219
upperneck -18.3337 -25.5736 43.7763
head 0.594901 -16.6745 22.3376
rclavicle -1.62474e-013 -2.03506e-014
rhumerus -29.9041 3.75388 -86.3751
rradius 91.7711
rwrist 15.7065
rhand -44.5373 -0.177599
rfingers 7.12502
rthumb -17.3383 -29.4242
lclavicle -1.62474e-013 -2.03506e-014
lhumerus -66.0671 19.8569 52.6762
lradius 44.3001
lwrist 55.4841
lhand -22.7196 -1.55683
lfingers 7.12502
lthumb 3.71392 28.3906
rfemur -9.83006 -10.9281 26.2593
rtibia 25.7519
rfoot -11.8538 -14.3618
rtoes -37.0866
lfemur -42.0547 3.38286 -11.0455
ltibia 42.2407
lfoot -11.5395 -3.22483
ltoes -30.4776
